<svg xmlns="http://www.w3.org/2000/svg" version="1.1" xmlns:xlink="http://www.w3.org/1999/xlink" width="200" height="200"><svg xmlns="http://www.w3.org/2000/svg" version="1.1" xmlns:xlink="http://www.w3.org/1999/xlink" viewBox="0 0 200 200"><rect width="200" height="200" fill="url('#gradient')"></rect><defs><linearGradient id="SvgjsLinearGradient1001" gradientTransform="rotate(260 0.5 0.5)"><stop offset="0%" stop-color="#4e74a9"></stop><stop offset="100%" stop-color="#121222"></stop></linearGradient></defs><g><g fill="#ffffff" transform="matrix(3.645518118245391,0,0,3.645518118245391,14.714548671238006,125.90578001911142)" stroke="#0a42b2" stroke-width="0"><path d="M6.74-4.46L6.74-14.22L10.16-14.22L10.16-4.46Q10.16-3.11 9.53-2.04Q8.90-0.98 7.77-0.39Q6.64 0.20 5.25 0.20L5.25 0.20Q2.93 0.20 1.64-0.98Q0.35-2.15 0.35-4.30L0.35-4.30L3.79-4.30Q3.79-3.32 4.13-2.88Q4.46-2.44 5.25-2.44L5.25-2.44Q5.97-2.44 6.35-2.97Q6.74-3.51 6.74-4.46L6.74-4.46ZM15.74-14.22L15.74-2.64L21.71-2.64L21.71 0L12.31 0L12.31-14.22L15.74-14.22ZM30.49-3.78L30.49-3.78Q30.49-4.53 29.96-4.95Q29.42-5.37 28.09-5.82Q26.75-6.27 25.90-6.69L25.90-6.69Q23.13-8.05 23.13-10.42L23.13-10.42Q23.13-11.60 23.82-12.50Q24.51-13.41 25.77-13.91Q27.03-14.41 28.60-14.41L28.60-14.41Q30.14-14.41 31.35-13.87Q32.57-13.32 33.24-12.31Q33.92-11.30 33.92-10L33.92-10L30.50-10Q30.50-10.87 29.97-11.35Q29.43-11.83 28.53-11.83L28.53-11.83Q27.61-11.83 27.08-11.42Q26.54-11.02 26.54-10.39L26.54-10.39Q26.54-9.84 27.13-9.40Q27.71-8.96 29.19-8.48Q30.66-8.01 31.61-7.46L31.61-7.46Q33.92-6.13 33.92-3.80L33.92-3.80Q33.92-1.93 32.51-0.87Q31.10 0.20 28.65 0.20L28.65 0.20Q26.92 0.20 25.52-0.42Q24.12-1.04 23.41-2.12Q22.71-3.20 22.71-4.61L22.71-4.61L26.14-4.61Q26.14-3.47 26.73-2.92Q27.32-2.38 28.65-2.38L28.65-2.38Q29.50-2.38 30.00-2.75Q30.49-3.12 30.49-3.78ZM43.01-3.78L43.01-3.78Q43.01-4.53 42.48-4.95Q41.94-5.37 40.61-5.82Q39.27-6.27 38.42-6.69L38.42-6.69Q35.65-8.05 35.65-10.42L35.65-10.42Q35.65-11.60 36.34-12.50Q37.03-13.41 38.29-13.91Q39.55-14.41 41.12-14.41L41.12-14.41Q42.66-14.41 43.87-13.87Q45.09-13.32 45.76-12.31Q46.44-11.30 46.44-10L46.44-10L43.02-10Q43.02-10.87 42.49-11.35Q41.95-11.83 41.04-11.83L41.04-11.83Q40.13-11.83 39.59-11.42Q39.06-11.02 39.06-10.39L39.06-10.39Q39.06-9.84 39.65-9.40Q40.23-8.96 41.71-8.48Q43.18-8.01 44.13-7.46L44.13-7.46Q46.44-6.13 46.44-3.80L46.44-3.80Q46.44-1.93 45.03-0.87Q43.62 0.20 41.17 0.20L41.17 0.20Q39.44 0.20 38.04-0.42Q36.64-1.04 35.93-2.12Q35.22-3.20 35.22-4.61L35.22-4.61L38.66-4.61Q38.66-3.47 39.25-2.92Q39.84-2.38 41.17-2.38L41.17-2.38Q42.02-2.38 42.51-2.75Q43.01-3.12 43.01-3.78Z"></path></g></g></svg><style>@media (prefers-color-scheme: light) { :root { filter: none; } }
@media (prefers-color-scheme: dark) { :root { filter: none; } }
</style></svg>